<svg xmlns="http://www.w3.org/2000/svg" viewBox="0 0 100 100" role="img" aria-label="IBRAHIM">
  <defs>
    <linearGradient id="gold" x1="0" y1="0" x2="0" y2="1">
      <stop offset="0" stop-color="#e9cd8b"/>
      <stop offset="0.45" stop-color="#c79a4e"/>
      <stop offset="0.55" stop-color="#b98b3d"/>
      <stop offset="1" stop-color="#e4c583"/>
    </linearGradient>
    <linearGradient id="tile" x1="0" y1="0" x2="1" y2="1">
      <stop offset="0" stop-color="#17161a"/>
      <stop offset="1" stop-color="#0b0b0d"/>
    </linearGradient>
  </defs>
  <rect x="2" y="2" width="96" height="96" rx="20" fill="url(#tile)"/>
  <rect x="2.5" y="2.5" width="95" height="95" rx="19.5" fill="none" stroke="#3a2f1c" stroke-width="1"/>
  <!-- thin gold rim near top, echoing the bottle cap -->
  <rect x="30" y="18" width="40" height="1.6" rx="0.8" fill="url(#gold)" opacity="0.8"/>
  <g fill="url(#gold)">
    <rect x="45.5" y="30" width="9" height="40"/>
    <path d="M37 30 h26 v3.6 c-3.9 0.26 -6.9 1.2 -6.9 4 h-12.2 c0 -2.8 -3 -3.74 -6.9 -4 z"/>
    <path d="M37 70 h26 v-3.6 c-3.9 -0.26 -6.9 -1.2 -6.9 -4 h-12.2 c0 2.8 -3 3.74 -6.9 4 z"/>
  </g>
</svg>
